<?xml version="1.0" standalone="no"?><!DOCTYPE svg PUBLIC "-//W3C//DTD SVG 1.1//EN" "http://www.w3.org/Graphics/SVG/1.1/DTD/svg11.dtd"><svg t="1679298406351" class="icon" viewBox="0 0 1024 1024" version="1.1" xmlns="http://www.w3.org/2000/svg" p-id="4437" xmlns:xlink="http://www.w3.org/1999/xlink" width="200" height="200"><path d="M604.892667 868.442108c-14.902408 0.001023-30.0412-4.040013-43.917232-11.979846-21.134343-12.093433-37.874609-32.095999-47.137577-56.322773L361.80014 402.49191c-9.872858-25.822109-10.813277-53.585429-2.64627-78.175477 8.813736-26.54047 27.839045-47.101761 52.194756-56.414871l260.847913-99.732445c24.357757-9.312086 52.246945-6.687306 76.517721 7.202029 22.490224 12.869099 40.312124 34.177404 50.184983 59.999512l152.036695 397.647579c9.262968 24.226774 10.136871 50.294476 2.462075 73.402777-8.329712 25.080212-26.337855 44.523029-49.40727 53.342906l-270.623557 103.471606C624.254643 866.720907 614.624309 868.442108 604.892667 868.442108zM702.329836 228.129744c-2.330068 0-4.595668 0.390903-6.744611 1.211595l-260.84689 99.732445c-8.128121 3.107781-11.904121 11.286044-13.430894 15.883759-3.364631 10.130731-2.75781 22.576181 1.664919 34.144658L575.010079 776.750803c7.604188 19.886933 24.52865 29.30135 34.969443 25.312502l270.624581-103.471606c6.365988-2.434445 9.401114-9.071609 10.642384-12.812817 2.879584-8.671497 2.339278-19.377326-1.481747-29.372981l-152.036695-397.646556C730.847334 240.763482 715.574488 228.129744 702.329836 228.129744z" fill="#707070" p-id="4438"></path><path d="M459.305871 576.393589c-13.181207 0-25.605168-8.014534-30.592762-21.060665-6.459109-16.891715 1.99954-35.821857 18.891256-42.279942l367.164311-140.382261c16.886599-6.460132 35.821857 1.998517 42.279942 18.891256 6.459109 16.892739-1.99954 35.821857-18.892279 42.280966L470.994074 574.225203C467.147466 575.695694 463.192388 576.393589 459.305871 576.393589z" fill="#707070" p-id="4439"></path><path d="M548.45733 805.563012c-13.18223 0-25.605168-8.014534-30.592762-21.060665-6.459109-16.891715 1.99954-35.821857 18.892279-42.279942l361.932146-138.382721c16.897855-6.460132 35.823903 1.99954 42.280966 18.892279 6.459109 16.891715-1.99954 35.821857-18.892279 42.279942l-361.933169 138.382721C556.297902 804.865117 552.343847 805.563012 548.45733 805.563012z" fill="#707070" p-id="4440"></path><path d="M293.737998 870.88781c-40.475853 0-83.441411-20.24509-124.250862-58.547441-29.141714-27.350928-57.101509-64.12753-74.794473-98.378611-2.051729-3.972475-3.698229-6.901177-5.151323-9.486048-5.982248-10.645454-9.002025-17.077957-12.806677-34.003442-3.965312-17.644869 7.123234-35.163871 24.768103-39.129182 17.645892-3.970428 35.163871 7.123234 39.130206 24.76708 2.097778 9.332553 2.467191 9.990538 6.001691 16.277732 1.632173 2.905166 3.663436 6.519484 6.245238 11.516288 11.163247 21.611204 33.162284 54.155411 61.427024 80.682577 19.835767 18.615986 49.718355 40.809451 79.432097 40.809451 18.08489 0 32.745798 14.660908 32.745798 32.745798S311.822888 870.88781 293.737998 870.88781z" fill="#707070" p-id="4441"></path><path d="M95.462189 572.394509c-0.095167 0-0.188288 0-0.283456-0.001023-18.083867-0.152473-32.619932-14.938224-32.467459-33.022091 0.453325-53.527101 6.890944-103.282295 19.132756-147.886165 4.787026-17.440208 22.806425-27.697829 40.245609-22.910802 17.440208 4.787026 27.697829 22.805402 22.910802 40.245609-10.742668 39.137369-16.394389 83.248006-16.799618 131.10599C128.048351 557.914726 113.416096 572.394509 95.462189 572.394509z" fill="#707070" p-id="4442"></path><path d="M168.022785 315.790246c-6.626931 0-13.313214-2.004657-19.102057-6.17156-14.678304-10.565636-18.012236-31.029714-7.446599-45.706995 2.285043-3.174296 4.63967-6.562463 7.133468-10.149151 23.070438-33.19503 57.936527-83.36057 138.51882-99.975992 17.706267-3.651157 35.030841 7.745405 38.684044 25.458835 3.65218 17.712407-7.746428 35.031864-25.457812 38.684044-54.959729 11.332093-76.822666 42.788525-97.965196 73.210395-2.535753 3.648087-5.157463 7.419993-7.757684 11.033287C188.228989 311.060525 178.198541 315.790246 168.022785 315.790246z" fill="#707070" p-id="4443"></path><path d="M527.708773 270.810822c-9.628288 0-19.165502-4.225231-25.631774-12.341073-14.488992-18.185174-33.552164-32.517601-56.659441-42.599214-16.576537-7.231705-24.15105-26.532283-16.918321-43.107797 7.231705-16.575514 26.533306-24.149003 43.107797-16.918321 32.529881 14.193257 60.777225 35.568077 81.690534 61.814858 11.269671 14.144138 8.939603 34.746362-5.204535 46.016033C542.065759 268.477684 534.861684 270.810822 527.708773 270.810822z" fill="#707070" p-id="4444"></path></svg>